<?xml version="1.0" encoding="utf-8"?>
<!-- Generator: Adobe Illustrator 16.0.4, SVG Export Plug-In . SVG Version: 6.00 Build 0)  -->
<!DOCTYPE svg PUBLIC "-//W3C//DTD SVG 1.1//EN" "http://www.w3.org/Graphics/SVG/1.1/DTD/svg11.dtd">
<svg version="1.1" id="Layer_1" xmlns="http://www.w3.org/2000/svg" xmlns:xlink="http://www.w3.org/1999/xlink" x="0px" y="0px"
	 width="118px" height="256px" viewBox="0 0 118 256" enable-background="new 0 0 118 256" xml:space="preserve">
<g id="_x30_2" display="none">
	<path display="inline" fill="#B8E8DC" d="M59,256c0,0,6.875-4.167,8.176-9.865c0.5-2.194,0.199-3.135,0.199-5.76
		c5.875,4.625,10.75,4.875,10.75,4.875s1.125-6.625,0-11.25c-2.375-6.5-8.625-12.75-10.25-15.25S66.5,215,66.5,212.5
		s0.355-7.75,7.48-7.75c8.5,0,9.27,8.25,9.27,8.25s0,6.875,0,11C94,224,99,216.375,99,213c1.625,0,3.5,0,3.5,0s0-1.5,0-3.25
		c2.75,0,6-3.25,8.125-7.375S118,196,118,196s-45.25,0-50.375,0c0,8.5-8.625,9.375-8.625,9.375S50.375,204.5,50.375,196
		C45.25,196,0,196,0,196s5.25,2.25,7.375,6.375s5.375,7.375,8.125,7.375c0,1.75,0,3.25,0,3.25s1.875,0,3.5,0c0,3.375,5,11,15.75,11
		c0-4.125,0-11,0-11s0.77-8.25,9.27-8.25c7.125,0,7.48,5.25,7.48,7.75s0.25,3.75-1.375,6.25S42.25,227.5,39.875,234
		c-1.125,4.625,0,11.25,0,11.25s4.875-0.25,10.75-4.875c0,2.625-0.301,3.565,0.199,5.76C52.125,251.833,59,256,59,256z"/>
	<g display="inline">
		<g id="SALON_2_">
			<g>
				
					<polyline id="N_10_" fill="none" stroke="#A5A4A6" stroke-width="1.25" stroke-linejoin="bevel" stroke-miterlimit="10" points="
					88.5,185.166 88.5,138.332 102,185.166 102,138.332 				"/>
				<path id="O_10_" fill="none" stroke="#A5A4A6" stroke-width="1.25" stroke-linejoin="bevel" stroke-miterlimit="10" d="
					M73.833,137.916c3.667,0,7,1,7,22.666c0,21.668-3.666,25.73-7.583,25.73s-7.333-3.584-7.333-24.199
					C65.917,141.5,70.333,137.916,73.833,137.916z"/>
				
					<polyline id="L_12_" fill="none" stroke="#A5A4A6" stroke-width="1.25" stroke-linejoin="bevel" stroke-miterlimit="10" points="
					52.75,137.916 52.75,185.166 61.75,185.166 				"/>
				<g id="A_10_">
					<polyline fill="none" stroke="#A5A4A6" stroke-width="1.25" stroke-linejoin="bevel" stroke-miterlimit="10" points="
						30.5,186.312 38.875,137.916 47.125,186.312 					"/>
					
						<line fill="none" stroke="#A5A4A6" stroke-width="1.25" stroke-linejoin="bevel" stroke-miterlimit="10" x1="43.688" y1="166.146" x2="33.99" y2="166.146"/>
				</g>
				<path id="S_10_" fill="none" stroke="#A5A4A6" stroke-width="1.25" stroke-linejoin="bevel" stroke-miterlimit="10" d="
					M14,175.291l0.033,5.146c0,0,0.451,5.875,6.076,5.875s6.516-6.021,5.891-10.396s-10.708-27.373-10.75-29.625
					c-0.042-2.25-0.875-8.375,4.75-8.375s4.875,5.875,4.875,5.875l0.033,3"/>
			</g>
		</g>
		<g id="LUXE_2_">
			<g id="E_2_">
				<polyline fill="none" stroke="#A5A4A6" stroke-width="1.25" stroke-linejoin="bevel" stroke-miterlimit="10" points="
					102.125,69 88.875,69 88.875,127.823 102.125,127.823 				"/>
				
					<line fill="none" stroke="#A5A4A6" stroke-width="1.25" stroke-linejoin="bevel" stroke-miterlimit="10" x1="98.25" y1="89.042" x2="88.875" y2="89.042"/>
			</g>
			<g id="X_2_">
				
					<line fill="none" stroke="#A5A4A6" stroke-width="1.25" stroke-linejoin="bevel" stroke-miterlimit="10" x1="60.125" y1="69" x2="81.25" y2="127.823"/>
				
					<line fill="none" stroke="#A5A4A6" stroke-width="1.25" stroke-linejoin="bevel" stroke-miterlimit="10" x1="58.125" y1="127.823" x2="79.25" y2="69"/>
			</g>
			<path id="U_2_" fill="none" stroke="#A5A4A6" stroke-width="1.25" stroke-linejoin="bevel" stroke-miterlimit="10" d="M35.875,69
				v51.667c0,0,0.125,7.156,7.875,7.156s7.75-7.156,7.75-7.156V69"/>
			<polyline id="L_5_" fill="none" stroke="#A5A4A6" stroke-width="1.25" stroke-linejoin="bevel" stroke-miterlimit="10" points="
				17.666,69 17.666,127.667 29,127.667 			"/>
		</g>
	</g>
	<path display="inline" fill="#B8E8DC" d="M59,0c0,0,6.875,4.167,8.176,9.865c0.5,2.194,0.199,3.135,0.199,5.76
		C73.25,11,78.125,10.75,78.125,10.75s1.125,6.625,0,11.25c-2.375,6.5-8.625,12.75-10.25,15.25S66.5,41,66.5,43.5
		s0.355,7.75,7.48,7.75c8.5,0,9.27-8.25,9.27-8.25s0-6.875,0-11C94,32,99,39.625,99,43c1.625,0,3.5,0,3.5,0s0,1.5,0,3.25
		c2.75,0,6,3.25,8.125,7.375S118,60,118,60s-45.25,0-50.375,0c0-8.5-8.625-9.375-8.625-9.375S50.375,51.5,50.375,60
		C45.25,60,0,60,0,60s5.25-2.25,7.375-6.375S12.75,46.25,15.5,46.25c0-1.75,0-3.25,0-3.25s1.875,0,3.5,0c0-3.375,5-11,15.75-11
		c0,4.125,0,11,0,11s0.77,8.25,9.27,8.25c7.125,0,7.48-5.25,7.48-7.75s0.25-3.75-1.375-6.25S42.25,28.5,39.875,22
		c-1.125-4.625,0-11.25,0-11.25s4.875,0.25,10.75,4.875c0-2.625-0.301-3.566,0.199-5.76C52.125,4.167,59,0,59,0z"/>
</g>
<g id="_x30_1">
	<path fill="#9CF9F4" d="M59,256c0,0,6.875-4.167,8.176-9.865c0.5-2.194,0.199-3.135,0.199-5.76
		c5.875,4.625,10.75,4.875,10.75,4.875s1.125-6.625,0-11.25c-2.375-6.5-8.625-12.75-10.25-15.25S66.5,215,66.5,212.5
		s0.355-7.75,7.48-7.75c8.5,0,9.27,8.25,9.27,8.25s0,6.875,0,11C94,224,99,216.375,99,213c1.625,0,3.5,0,3.5,0s0-1.5,0-3.25
		c2.75,0,6-3.25,8.125-7.375S118,196,118,196s-45.25,0-50.375,0c0,8.5-8.625,9.375-8.625,9.375S50.375,204.5,50.375,196
		C45.25,196,0,196,0,196s5.25,2.25,7.375,6.375s5.375,7.375,8.125,7.375c0,1.75,0,3.25,0,3.25s1.875,0,3.5,0c0,3.375,5,11,15.75,11
		c0-4.125,0-11,0-11s0.77-8.25,9.27-8.25c7.125,0,7.48,5.25,7.48,7.75s0.25,3.75-1.375,6.25S42.25,227.5,39.875,234
		c-1.125,4.625,0,11.25,0,11.25s4.875-0.25,10.75-4.875c0,2.625-0.301,3.565,0.199,5.76C52.125,251.833,59,256,59,256z"/>
	<g>
		<g id="SALON_1_">
			<polyline id="N_1_" fill="none" stroke="#A5A4A6" stroke-width="1.25" stroke-linejoin="bevel" stroke-miterlimit="10" points="
				88.5,185.166 88.5,138.332 102,185.166 102,138.332 			"/>
			<path id="O_1_" fill="none" stroke="#A5A4A6" stroke-width="1.25" stroke-linejoin="bevel" stroke-miterlimit="10" d="
				M73.833,137.916c3.667,0,7,1,7,22.666c0,21.668-3.666,25.73-7.583,25.73s-7.333-3.584-7.333-24.199
				C65.917,141.5,70.333,137.916,73.833,137.916z"/>
			<polyline id="L_2_" fill="none" stroke="#A5A4A6" stroke-width="1.25" stroke-linejoin="bevel" stroke-miterlimit="10" points="
				52.75,137.916 52.75,185.166 61.75,185.166 			"/>
			<g id="A_1_">
				<polyline fill="none" stroke="#A5A4A6" stroke-width="1.25" stroke-linejoin="bevel" stroke-miterlimit="10" points="
					30.5,186.312 38.875,137.916 47.125,186.312 				"/>
				
					<line fill="none" stroke="#A5A4A6" stroke-width="1.25" stroke-linejoin="bevel" stroke-miterlimit="10" x1="43.688" y1="166.146" x2="33.99" y2="166.146"/>
			</g>
			<path id="S_1_" fill="none" stroke="#A5A4A6" stroke-width="1.25" stroke-linejoin="bevel" stroke-miterlimit="10" d="
				M14,175.291l0.033,5.146c0,0,0.451,5.875,6.076,5.875s6.516-6.021,5.891-10.396s-10.708-27.373-10.75-29.625
				c-0.042-2.25-0.875-8.375,4.75-8.375s4.875,5.875,4.875,5.875l0.033,3"/>
		</g>
		<g id="LUXE_1_">
			<g id="E_1_">
				<polyline fill="none" stroke="#A5A4A6" stroke-width="1.25" stroke-linejoin="bevel" stroke-miterlimit="10" points="
					102.125,69 88.875,69 88.875,127.822 102.125,127.822 				"/>
				
					<line fill="none" stroke="#A5A4A6" stroke-width="1.25" stroke-linejoin="bevel" stroke-miterlimit="10" x1="98.25" y1="89.042" x2="88.875" y2="89.042"/>
			</g>
			<g id="X_1_">
				
					<line fill="none" stroke="#A5A4A6" stroke-width="1.25" stroke-linejoin="bevel" stroke-miterlimit="10" x1="60.125" y1="69" x2="81.25" y2="127.822"/>
				
					<line fill="none" stroke="#A5A4A6" stroke-width="1.25" stroke-linejoin="bevel" stroke-miterlimit="10" x1="58.125" y1="127.822" x2="79.25" y2="69"/>
			</g>
			<path id="U_1_" fill="none" stroke="#A5A4A6" stroke-width="1.25" stroke-linejoin="bevel" stroke-miterlimit="10" d="M35.875,69
				v51.667c0,0,0.125,7.156,7.875,7.156s7.75-7.156,7.75-7.156V69"/>
			<polyline id="L_3_" fill="none" stroke="#A5A4A6" stroke-width="1.25" stroke-linejoin="bevel" stroke-miterlimit="10" points="
				17.666,69 17.666,127.666 29,127.666 			"/>
		</g>
	</g>
	<path fill="#9CF9F4" d="M59,0c0,0,6.875,4.167,8.176,9.865c0.5,2.194,0.199,3.135,0.199,5.76C73.25,11,78.125,10.75,78.125,10.75
		s1.125,6.625,0,11.25c-2.375,6.5-8.625,12.75-10.25,15.25S66.5,41,66.5,43.5s0.355,7.75,7.48,7.75c8.5,0,9.27-8.25,9.27-8.25
		s0-6.875,0-11C94,32,99,39.625,99,43c1.625,0,3.5,0,3.5,0s0,1.5,0,3.25c2.75,0,6,3.25,8.125,7.375S118,60,118,60s-45.25,0-50.375,0
		c0-8.5-8.625-9.375-8.625-9.375S50.375,51.5,50.375,60C45.25,60,0,60,0,60s5.25-2.25,7.375-6.375S12.75,46.25,15.5,46.25
		c0-1.75,0-3.25,0-3.25s1.875,0,3.5,0c0-3.375,5-11,15.75-11c0,4.125,0,11,0,11s0.77,8.25,9.27,8.25c7.125,0,7.48-5.25,7.48-7.75
		s0.25-3.75-1.375-6.25S42.25,28.5,39.875,22c-1.125-4.625,0-11.25,0-11.25s4.875,0.25,10.75,4.875c0-2.625-0.301-3.566,0.199-5.76
		C52.125,4.167,59,0,59,0z"/>
</g>
</svg>
