<?xml version="1.0" encoding="utf-8"?>
<!-- Generator: Adobe Illustrator 18.0.0, SVG Export Plug-In . SVG Version: 6.00 Build 0)  -->
<!DOCTYPE svg PUBLIC "-//W3C//DTD SVG 1.1//EN" "http://www.w3.org/Graphics/SVG/1.1/DTD/svg11.dtd">
<svg version="1.1" id="Layer_1" xmlns="http://www.w3.org/2000/svg" xmlns:xlink="http://www.w3.org/1999/xlink" x="0px" y="0px"
	 viewBox="0 51 118 205" enable-background="new 0 51 118 205" xml:space="preserve">
<g id="_x30_2" display="none">
	<path display="inline" fill="#B8E8DC" d="M59,256c0,0,6.9-4.2,8.2-9.9c0.5-2.2,0.2-3.1,0.2-5.8c5.9,4.6,10.8,4.9,10.8,4.9
		s1.1-6.6,0-11.2c-2.4-6.5-8.6-12.8-10.2-15.2s-1.4-3.8-1.4-6.2s0.4-7.8,7.5-7.8c8.5,0,9.3,8.2,9.3,8.2s0,6.9,0,11
		C94,224,99,216.4,99,213c1.6,0,3.5,0,3.5,0s0-1.5,0-3.2c2.8,0,6-3.2,8.1-7.4s7.4-6.4,7.4-6.4s-45.2,0-50.4,0c0,8.5-8.6,9.4-8.6,9.4
		s-8.6-0.9-8.6-9.4c-5.1,0-50.4,0-50.4,0s5.2,2.2,7.4,6.4s5.4,7.4,8.1,7.4c0,1.8,0,3.2,0,3.2s1.9,0,3.5,0c0,3.4,5,11,15.8,11
		c0-4.1,0-11,0-11s0.8-8.2,9.3-8.2c7.1,0,7.5,5.2,7.5,7.8s0.2,3.8-1.4,6.2s-7.9,8.8-10.2,15.2c-1.1,4.6,0,11.2,0,11.2
		s4.9-0.2,10.8-4.9c0,2.6-0.3,3.6,0.2,5.8C52.1,251.8,59,256,59,256z"/>
	<g display="inline">
		<g id="SALON_2_">
			<g>
				
					<polyline id="N_10_" fill="none" stroke="#A5A4A6" stroke-width="1.25" stroke-linejoin="bevel" stroke-miterlimit="10" points="
					88.5,185.2 88.5,138.3 102,185.2 102,138.3 				"/>
				<path id="O_10_" fill="none" stroke="#A5A4A6" stroke-width="1.25" stroke-linejoin="bevel" stroke-miterlimit="10" d="
					M73.8,137.9c3.7,0,7,1,7,22.7c0,21.7-3.7,25.7-7.6,25.7s-7.3-3.6-7.3-24.2C65.9,141.5,70.3,137.9,73.8,137.9z"/>
				
					<polyline id="L_12_" fill="none" stroke="#A5A4A6" stroke-width="1.25" stroke-linejoin="bevel" stroke-miterlimit="10" points="
					52.8,137.9 52.8,185.2 61.8,185.2 				"/>
				<g id="A_10_">
					<polyline fill="none" stroke="#A5A4A6" stroke-width="1.25" stroke-linejoin="bevel" stroke-miterlimit="10" points="
						30.5,186.3 38.9,137.9 47.1,186.3 					"/>
					
						<line fill="none" stroke="#A5A4A6" stroke-width="1.25" stroke-linejoin="bevel" stroke-miterlimit="10" x1="43.7" y1="166.1" x2="34" y2="166.1"/>
				</g>
				<path id="S_10_" fill="none" stroke="#A5A4A6" stroke-width="1.25" stroke-linejoin="bevel" stroke-miterlimit="10" d="
					M14,175.3l0,5.1c0,0,0.5,5.9,6.1,5.9s6.5-6,5.9-10.4s-10.7-27.4-10.8-29.6c0-2.2-0.9-8.4,4.8-8.4s4.9,5.9,4.9,5.9l0,3"/>
			</g>
		</g>
		<g id="LUXE_2_">
			<g id="E_2_">
				<polyline fill="none" stroke="#A5A4A6" stroke-width="1.25" stroke-linejoin="bevel" stroke-miterlimit="10" points="102.1,69 
					88.9,69 88.9,127.8 102.1,127.8 				"/>
				
					<line fill="none" stroke="#A5A4A6" stroke-width="1.25" stroke-linejoin="bevel" stroke-miterlimit="10" x1="98.2" y1="89" x2="88.9" y2="89"/>
			</g>
			<g id="X_2_">
				
					<line fill="none" stroke="#A5A4A6" stroke-width="1.25" stroke-linejoin="bevel" stroke-miterlimit="10" x1="60.1" y1="69" x2="81.2" y2="127.8"/>
				
					<line fill="none" stroke="#A5A4A6" stroke-width="1.25" stroke-linejoin="bevel" stroke-miterlimit="10" x1="58.1" y1="127.8" x2="79.2" y2="69"/>
			</g>
			<path id="U_2_" fill="none" stroke="#A5A4A6" stroke-width="1.25" stroke-linejoin="bevel" stroke-miterlimit="10" d="M35.9,69
				v51.7c0,0,0.1,7.2,7.9,7.2s7.8-7.2,7.8-7.2V69"/>
			<polyline id="L_5_" fill="none" stroke="#A5A4A6" stroke-width="1.25" stroke-linejoin="bevel" stroke-miterlimit="10" points="
				17.7,69 17.7,127.7 29,127.7 			"/>
		</g>
	</g>
	<path display="inline" fill="#B8E8DC" d="M59,0c0,0,6.9,4.2,8.2,9.9c0.5,2.2,0.2,3.1,0.2,5.8c5.9-4.6,10.8-4.9,10.8-4.9
		s1.1,6.6,0,11.2c-2.4,6.5-8.6,12.8-10.2,15.2s-1.4,3.8-1.4,6.2s0.4,7.8,7.5,7.8c8.5,0,9.3-8.2,9.3-8.2s0-6.9,0-11
		C94,32,99,39.6,99,43c1.6,0,3.5,0,3.5,0s0,1.5,0,3.2c2.8,0,6,3.2,8.1,7.4S118,60,118,60s-45.2,0-50.4,0c0-8.5-8.6-9.4-8.6-9.4
		s-8.6,0.9-8.6,9.4C45.2,60,0,60,0,60s5.2-2.2,7.4-6.4s5.4-7.4,8.1-7.4c0-1.8,0-3.2,0-3.2s1.9,0,3.5,0c0-3.4,5-11,15.8-11
		c0,4.1,0,11,0,11s0.8,8.2,9.3,8.2c7.1,0,7.5-5.2,7.5-7.8s0.2-3.8-1.4-6.2S42.2,28.5,39.9,22c-1.1-4.6,0-11.2,0-11.2
		s4.9,0.2,10.8,4.9c0-2.6-0.3-3.6,0.2-5.8C52.1,4.2,59,0,59,0z"/>
</g>
<path fill="#96F8E3" d="M59,256c0,0,6.9-4.2,8.2-9.9c0.5-2.2,0.2-3.1,0.2-5.8c5.9,4.6,10.8,4.9,10.8,4.9s1.1-6.6,0-11.2
	c-2.4-6.5-8.6-12.8-10.2-15.2s-1.4-3.8-1.4-6.2s0.4-7.8,7.5-7.8c8.5,0,9.3,8.2,9.3,8.2s0,6.9,0,11C94,224,99,216.4,99,213
	c1.6,0,3.5,0,3.5,0s0-1.5,0-3.2c2.8,0,6-3.2,8.1-7.4s7.4-6.4,7.4-6.4s-45.2,0-50.4,0c0,8.5-8.6,9.4-8.6,9.4s-8.6-0.9-8.6-9.4
	c-5.1,0-50.4,0-50.4,0s5.2,2.2,7.4,6.4s5.4,7.4,8.1,7.4c0,1.8,0,3.2,0,3.2s1.9,0,3.5,0c0,3.4,5,11,15.8,11c0-4.1,0-11,0-11
	s0.8-8.2,9.3-8.2c7.1,0,7.5,5.2,7.5,7.8s0.2,3.8-1.4,6.2s-7.9,8.8-10.2,15.2c-1.1,4.6,0,11.2,0,11.2s4.9-0.2,10.8-4.9
	c0,2.6-0.3,3.6,0.2,5.8C52.1,251.8,59,256,59,256z"/>
<g>
	<g id="SALON_1_">
		<polyline id="N_1_" fill="none" stroke="#A5A4A6" stroke-width="1.25" stroke-linejoin="bevel" stroke-miterlimit="10" points="
			88.5,185.2 88.5,138.3 102,185.2 102,138.3 		"/>
		<path id="O_1_" fill="none" stroke="#A5A4A6" stroke-width="1.25" stroke-linejoin="bevel" stroke-miterlimit="10" d="M73.8,137.9
			c3.7,0,7,1,7,22.7c0,21.7-3.7,25.7-7.6,25.7s-7.3-3.6-7.3-24.2C65.9,141.5,70.3,137.9,73.8,137.9z"/>
		<polyline id="L_2_" fill="none" stroke="#A5A4A6" stroke-width="1.25" stroke-linejoin="bevel" stroke-miterlimit="10" points="
			52.8,137.9 52.8,185.2 61.8,185.2 		"/>
		<g id="A_1_">
			<polyline fill="none" stroke="#A5A4A6" stroke-width="1.25" stroke-linejoin="bevel" stroke-miterlimit="10" points="30.5,186.3 
				38.9,137.9 47.1,186.3 			"/>
			
				<line fill="none" stroke="#A5A4A6" stroke-width="1.25" stroke-linejoin="bevel" stroke-miterlimit="10" x1="43.7" y1="166.1" x2="34" y2="166.1"/>
		</g>
		<path id="S_1_" fill="none" stroke="#A5A4A6" stroke-width="1.25" stroke-linejoin="bevel" stroke-miterlimit="10" d="M14,175.3
			l0,5.1c0,0,0.5,5.9,6.1,5.9s6.5-6,5.9-10.4s-10.7-27.4-10.8-29.6c0-2.2-0.9-8.4,4.8-8.4s4.9,5.9,4.9,5.9l0,3"/>
	</g>
	<g id="LUXE_1_">
		<g id="E_1_">
			<polyline fill="none" stroke="#A5A4A6" stroke-width="1.25" stroke-linejoin="bevel" stroke-miterlimit="10" points="102.1,69 
				88.9,69 88.9,127.8 102.1,127.8 			"/>
			
				<line fill="none" stroke="#A5A4A6" stroke-width="1.25" stroke-linejoin="bevel" stroke-miterlimit="10" x1="98.2" y1="89" x2="88.9" y2="89"/>
		</g>
		<g id="X_1_">
			
				<line fill="none" stroke="#A5A4A6" stroke-width="1.25" stroke-linejoin="bevel" stroke-miterlimit="10" x1="60.1" y1="69" x2="81.2" y2="127.8"/>
			
				<line fill="none" stroke="#A5A4A6" stroke-width="1.25" stroke-linejoin="bevel" stroke-miterlimit="10" x1="58.1" y1="127.8" x2="79.2" y2="69"/>
		</g>
		<path id="U_1_" fill="none" stroke="#A5A4A6" stroke-width="1.25" stroke-linejoin="bevel" stroke-miterlimit="10" d="M35.9,69
			v51.7c0,0,0.1,7.2,7.9,7.2s7.8-7.2,7.8-7.2V69"/>
		<polyline id="L_3_" fill="none" stroke="#A5A4A6" stroke-width="1.25" stroke-linejoin="bevel" stroke-miterlimit="10" points="
			17.7,69 17.7,127.7 29,127.7 		"/>
	</g>
</g>
</svg>
